<?xml version="1.0" standalone="no"?>
<!DOCTYPE svg PUBLIC "-//W3C//DTD SVG 20010904//EN"
 "http://www.w3.org/TR/2001/REC-SVG-20010904/DTD/svg10.dtd">
<svg version="1.0" xmlns="http://www.w3.org/2000/svg"
 width="128.000000pt" height="128.000000pt" viewBox="0 0 128.000000 128.000000"
 preserveAspectRatio="xMidYMid meet">
<metadata>
Created by potrace 1.11, written by Peter Selinger 2001-2013
</metadata>
<g transform="translate(0.000000,128.000000) scale(0.100000,-0.100000)"
fill="#000000" stroke="none">
<path d="M0 640 l0 -640 166 0 165 0 -3 43 c-3 41 -4 42 -40 45 l-38 3 0 69 0
69 38 3 37 3 0 125 0 125 -37 3 -38 3 0 75 0 74 29 0 c28 0 30 -3 33 -43 3
-41 4 -42 40 -45 l37 -3 3 -77 3 -77 37 -3 c35 -3 37 -5 40 -40 3 -36 4 -37
46 -40 41 -3 42 -4 42 -38 l0 -34 83 0 c45 0 133 -3 195 -7 l112 -6 0 -114 0
-113 165 0 165 0 0 560 0 560 -40 0 -40 0 0 40 0 40 -40 0 -40 0 0 40 0 40
-80 0 -80 0 0 -40 0 -40 -40 0 -40 0 0 40 0 40 -80 0 -80 0 0 -40 0 -40 -40 0
-40 0 0 40 0 40 -320 0 -320 0 0 -640z m640 520 l0 -40 -40 0 -40 0 0 -40 0
-40 -40 0 -40 0 0 -40 0 -40 -40 0 -40 0 0 40 0 40 40 0 40 0 0 40 0 40 40 0
40 0 0 40 0 40 40 0 40 0 0 -40z m240 0 l0 -40 -40 0 -40 0 0 -40 0 -40 -40 0
-40 0 0 -40 0 -40 -40 0 -40 0 0 40 0 40 40 0 40 0 0 40 0 40 40 0 40 0 0 40
0 40 40 0 40 0 0 -40z m240 0 l0 -40 -40 0 -40 0 0 -40 0 -40 -40 0 -40 0 0
40 0 40 40 0 40 0 0 40 0 40 40 0 40 0 0 -40z m-160 -440 l0 -160 40 0 40 0 0
-120 0 -120 -40 0 -40 0 0 -40 0 -40 -80 0 -80 0 0 160 0 160 -40 0 -40 0 0
40 0 40 -40 0 -40 0 0 -80 0 -80 40 0 40 0 0 -80 0 -80 -120 0 -120 0 0 40 0
40 -40 0 -40 0 0 80 0 80 -40 0 -40 0 0 160 0 160 320 0 320 0 0 -160z m-720
-200 l0 -40 40 0 40 0 0 -40 0 -40 -40 0 -40 0 0 -40 0 -40 40 0 40 0 0 -40 0
-40 -40 0 -40 0 0 40 0 40 -40 0 -40 0 0 120 0 120 40 0 40 0 0 -40z"/>
<path d="M400 720 l0 -80 40 0 40 0 0 80 0 80 -40 0 -40 0 0 -80z"/>
<path d="M800 720 l0 -80 40 0 40 0 0 80 0 80 -40 0 -40 0 0 -80z"/>
<path d="M480 120 l0 -40 40 0 40 0 0 -40 0 -40 120 0 120 0 0 40 0 40 -120 0
-120 0 0 40 0 40 -40 0 -40 0 0 -40z"/>
</g>
</svg>
